<svg width="650" height="374" viewBox="0 0 650 374" fill="none" xmlns="http://www.w3.org/2000/svg">
<path d="M229.359 242.183C228.635 241.694 216.538 230.81 213.535 226.955C210.596 223.058 204.931 222.035 201.97 220.481C198.988 218.947 179.309 212.451 174.581 215.816C169.916 219.181 163.484 221.226 160.993 215.816C158.543 210.364 157.308 209.597 153.858 208.831C150.407 208.064 152.132 203.953 151.898 200.333C151.621 196.691 149.662 192.814 147.191 195.413C144.721 198.011 136.329 204.741 135.115 201.334C133.88 197.99 127.938 184.04 136.84 181.42C145.7 178.864 153.112 180.376 155.349 182.719C157.564 185.019 159.267 191.515 162.015 190.727C164.741 189.939 163.25 184.998 164.23 180.909C165.21 176.798 171.663 171.346 174.581 165.681C177.541 159.951 178.031 156.608 181.716 155.053C185.464 153.519 187.423 151.453 190.874 148.855C194.345 146.257 199.734 143.957 201.757 142.636C203.738 141.316 212.598 136.928 215.537 137.716C218.497 138.504 220.457 137.461 218.008 133.073C215.537 128.686 212.342 115.481 207.657 109.56C202.971 103.639 202.46 102.042 200.245 96.3979C198.03 90.6687 195.538 85.7701 193.813 89.6464C192.088 93.5226 188.403 98.6981 186.422 93.7782C184.463 88.8583 184.697 89.0926 182.227 86.7924C179.777 84.4709 177.775 83.9385 174.346 82.8949C170.896 81.8513 167.446 83.1717 167.68 86.5155C167.914 89.8806 164.443 95.8654 166.7 100.274C168.915 104.683 170.896 109.326 167.914 110.881C164.975 112.414 167.914 121.743 164.975 121.466C162.015 121.231 160.545 121.743 160.545 118.356C160.545 115.034 162.015 109.858 156.562 109.858C151.153 109.858 147.937 107.026 143.997 104.15C140.035 101.318 136.84 102.851 137.82 96.4192C138.8 89.9232 137.352 87.623 141.76 84.0024C146.212 80.403 147.213 78.2945 150.407 79.8705C153.623 81.4253 155.817 81.4253 157.84 79.615C159.8 77.8046 163.484 78.55 163.484 76.2499C163.484 73.9284 159.289 73.9284 159.8 70.0734C160.268 66.1333 162.27 68.2418 162.995 61.7671C163.719 55.2925 158.309 45.4741 152.878 46.7733C147.426 48.0512 139.077 55.5694 137.352 52.183C135.605 48.8392 132.155 50.3726 125.489 52.7154C118.822 55.0582 91.1986 50.4152 89.2392 48.0511C89.2392 48.0511 84.5323 44.7074 82.0617 46.5177C79.6124 48.328 69.7301 47.54 66.7697 47.0501C63.7879 46.5177 61.0831 50.3939 57.4198 49.1161C53.6713 47.8169 40.6156 45.2185 37.6764 43.1526C34.6734 41.0654 30.2221 41.0654 28.3053 40.0431C26.3246 38.9995 19.1471 38.4883 17.6988 40.5542C16.2079 42.6201 10.7769 46.2195 8.05077 48.8179C5.34591 51.4163 2.17249 50.9051 4.85605 56.3361C7.56091 61.7671 -2.04453 65.1322 0.404749 71.0531C2.85403 76.974 -0.0851079 93.0115 9.77592 96.121C19.6582 99.2305 27.7941 101.041 33.4594 96.4192C39.1673 91.7336 47.793 91.7336 50.4979 96.909C53.2028 102.084 54.6936 109.837 63.5536 114.224C72.4137 118.633 80.081 131.305 79.5911 136.949C79.1226 142.657 79.868 161.506 88.941 172.368C98.0992 183.23 107.47 202.91 108.173 198.224C108.919 193.56 108.919 188.896 110.921 192.282C112.859 195.647 118.056 205.998 126.447 207.808C134.86 209.619 139.055 210.13 142.229 213.261C145.424 216.37 148.171 218.159 151.6 219.735C155.05 221.269 163.442 225.954 165.167 229.042C166.913 232.152 166.168 236.284 164.421 240.948C162.718 245.612 160.737 250.255 163.186 254.664C165.678 259.052 170.854 271.724 175.071 274.557C179.266 277.432 183.419 282.075 182.44 288.528C181.46 294.981 176.774 322.648 177.264 328.867C177.775 335.043 171.62 355.468 176.54 363.753C181.46 372.017 189.894 374.615 193.579 373.55C197.263 372.549 194.324 372.251 192.578 368.396C190.852 364.498 191.087 359.579 193.067 355.979C195.069 352.359 195.069 350.293 194.068 346.161C193.067 342.029 193.579 339.686 196.028 336.598C198.52 333.488 208.871 325.225 212.087 321.604C215.26 317.983 235.536 293.15 238.241 291.084C240.946 289.018 247.101 284.098 249.103 276.367C251.084 268.636 258.218 253.365 253.299 249.467C248.357 245.57 230.105 242.695 229.359 242.183Z" fill="#A7A7A7"/>
<path d="M278.686 24.0034C279.645 22.1291 281.536 18.3318 283.222 14.9106C284.201 12.9237 282.753 10.6069 280.538 10.6069H229.681C218.141 10.6069 210.229 21.2731 210.875 32.7945C210.953 34.1829 210.954 35.4196 210.851 36.4202C210.106 43.6616 212.342 41.0845 214.302 43.9385C216.282 46.7924 215.793 51.2011 214.557 54.5236C213.301 57.8887 212.577 65.407 216.559 74.2031C220.478 82.9779 225.164 94.0955 229.104 94.628C233.087 95.1178 232.086 100.826 234.812 98.7385C237.517 96.6513 237.985 92.0509 240.243 85.2994C242.458 78.6118 242.458 73.6706 248.144 70.3055C253.831 66.9404 269.592 56.0997 273.042 52.2021C276.513 48.3046 280.454 46.7711 279.218 40.0622C277.94 33.332 276.726 27.901 278.686 24.0034Z" fill="#A7A7A7"/>
<path d="M663.521 54.5248C660.561 52.4589 642.82 38.2531 635.152 40.0634C627.549 41.8737 613.961 35.9103 611.724 34.6324C609.509 33.3332 591.278 27.7318 581.651 27.391C576.859 27.2207 556.733 22.7267 548.341 19.1274C539.928 15.4854 532.815 -2.34114 516.777 0.51281C514.712 0.896176 495.33 3.62234 490.389 8.03105C485.491 12.4398 483.233 17.5726 480.528 18.6162C477.823 19.6598 469.922 19.1274 469.922 23.0249C469.922 26.9012 472.648 38.8068 469.453 36.464C466.237 34.1425 463.021 28.7115 461.573 32.8647C460.103 37.0178 457.569 39.318 456.12 37.7632C454.672 36.2085 447.218 37.7632 446.259 40.3403C445.258 42.9387 435.653 48.8595 431.479 49.6689C427.283 50.4356 425.536 52.5015 423.321 53.5451C421.106 54.5674 404.302 62.3413 401.129 59.4873C397.913 56.6547 396.933 58.465 394.952 58.9761C394.952 58.9761 389.031 57.9325 385.347 53.2895C381.62 48.6466 380.895 50.18 376.7 45.7926C372.525 41.4052 371.524 37.0178 367.35 38.8281C363.175 40.6172 345.413 58.9548 338.491 67.2398C331.612 75.5248 319.259 84.044 325.414 89.9649C331.612 95.9071 334.785 95.1403 335.552 98.4841C336.319 101.828 337.043 105.47 338.022 106.769C339.002 108.09 344.902 112.711 347.883 106.514C350.886 100.294 351.334 95.9071 354.784 96.9507C358.234 97.973 358.958 100.316 357.212 104.959C355.487 109.644 354.273 116.864 348.352 116.588C342.452 116.332 336.042 112.711 334.04 113.499C332.08 114.266 330.888 116.076 328.63 117.887C326.415 119.697 319.493 128.195 314.807 129.515C310.143 130.815 304.478 129.75 307.673 133.626C310.867 137.502 315.553 146.043 311.123 145.766C306.693 145.51 299.281 144.744 298.791 149.131C298.301 153.518 296.342 156.117 297.322 159.205C298.301 162.315 301.517 168.278 305.436 166.191C309.44 164.104 317.065 162.08 319.024 157.395C321.005 152.73 323.241 147.598 328.161 147.853C333.081 148.109 344.944 154.562 344.178 156.905C343.453 159.205 341.004 164.657 343.943 162.847C346.904 161.015 349.353 158.949 351.078 158.183C352.803 157.395 355.082 160.781 355.785 162.08C356.509 163.401 361.472 165.957 362.43 161.782C363.431 157.672 364.411 160.781 367.35 162.08C370.332 163.401 379.192 164.381 380.384 165.424C381.662 166.468 384.367 169.556 380.895 173.709C377.445 177.82 373.484 179.417 367.818 176.307C362.132 173.198 355.955 178.906 349.609 175.775C343.155 172.687 346.137 168.299 338.491 165.19C330.888 162.08 313.593 165.957 308.141 167.511C302.71 169.045 302.476 169.577 300.261 172.154C298.046 174.753 283.499 191.536 283.499 201.098C283.499 210.64 288.909 236.539 306.416 233.94C323.944 231.342 334.551 232.875 332.591 238.029C330.589 243.226 331.612 244.525 334.806 250.446C338.001 256.388 345.434 295.96 346.648 302.392C347.926 308.867 345.69 317.109 353.826 315.831C362.004 314.532 370.608 312.488 374.037 304.991C377.509 297.472 378.042 288.974 382.472 284.587C386.923 280.178 392.333 280.178 392.801 273.981C393.27 267.762 391.566 253.045 394.526 249.637C397.508 246.314 411.288 230.767 412.757 224.569C414.248 218.371 416.208 216.816 410.542 216.816C404.877 216.816 395.25 216.071 392.503 210.896C389.798 205.784 383.366 195.966 383.366 193.644C383.366 191.344 387.328 191.578 389.266 196.477C391.268 201.375 398.126 216.156 406.027 213.004C413.929 209.895 425.046 206.295 425.281 201.375C425.515 196.477 421.83 190.79 417.869 191.067C413.886 191.344 409.712 188.469 409.712 185.636C409.712 182.803 410.436 183.847 415.143 185.636C419.85 187.446 421.298 190.535 428.475 191.067C435.632 191.578 443.768 198.564 447.686 201.673C451.648 204.783 458.527 225.996 460.274 228.041C461.977 230.128 464.022 230.128 465.726 225.975C467.451 221.822 474.841 208.659 479.058 205.017C483.233 201.397 483.488 196.498 485.916 199.608C488.387 202.717 498.994 210.448 499.739 215.113C500.484 219.777 499.249 229.851 501.464 226.741C503.679 223.632 505.426 217.2 507.342 220.054C509.344 222.908 509.344 227.295 514.009 223.93C518.716 220.608 526.851 219.287 522.421 212.046C517.991 204.804 520.952 200.417 523.699 200.14C526.404 199.863 544.912 196.519 545.402 186.424C545.892 176.35 538.97 170.919 542.25 165.744C545.402 160.568 550.109 155.925 551.11 159.013C552.09 162.123 548.639 172.197 553.069 170.642C557.521 169.109 562.696 169.109 562.696 165.978C562.696 162.847 561.695 155.095 563.697 153.05C565.678 150.984 580.203 137.311 581.928 131.88C583.654 126.427 586.87 121.784 584.143 117.674C581.417 113.542 576.753 114.799 580.438 109.666C584.143 104.49 590.32 99.6981 595.005 99.3148C609.978 97.9943 605.761 116.524 606.017 120.655C606.293 124.787 606.293 135.138 608.487 129.963C610.702 124.809 613.279 118.44 617.73 114.053C622.182 109.687 624.631 106.812 624.908 102.957C625.164 99.0805 625.355 97.7813 629.594 95.7154C633.789 93.6282 652.276 86.3868 654.001 81.5095C655.726 76.611 651.786 72.181 656.216 72.4791C660.646 72.7134 664.842 77.612 667.078 75.0349C669.293 72.4791 674.234 67.8148 673.979 65.2165C673.681 62.5329 666.524 56.5907 663.521 54.5248Z" fill="#A7A7A7"/>
<path d="M583.888 141.357C582.397 144.744 581.673 145.276 579.458 152.262C577.2 159.205 577.946 157.395 575.709 161.782C573.494 166.191 569.831 166.681 566.125 169.556C562.377 172.41 561.397 178.075 561.397 178.075C558.202 182.463 574.474 171.856 580.139 168.512C585.826 165.147 584.356 161.271 584.846 155.84C585.336 150.388 586.87 149.621 589.276 147.299C591.725 144.978 589.766 140.314 588.595 136.97C587.317 133.626 585.336 138.035 583.888 141.357Z" fill="#A7A7A7"/>
<path d="M533.305 258.752C535.03 257.431 533.773 254.62 536.478 255.11C539.204 255.621 541.654 257.218 544.912 255.408C548.086 253.576 550.812 254.343 550.322 251.255C549.853 248.167 550.322 244.035 549.598 241.458C548.852 238.859 544.422 238.071 541.206 240.947C537.99 243.822 533.582 248.209 533.582 246.633C533.582 245.1 535.52 240.947 534.54 238.369C533.582 235.792 535.03 233.471 530.11 235.516C525.169 237.603 522.464 237.07 520.739 239.924C519.035 242.799 517.033 247.677 514.094 244.589C511.155 241.5 502.486 235.047 502.486 235.047C501.784 234.259 491.923 226.23 495.373 231.682C498.802 237.113 503.999 246.42 506.469 249.764C508.897 253.129 511.623 257.027 514.605 255.216C517.566 253.385 518.055 252.895 522.017 255.216C525.872 257.453 531.58 260.051 533.305 258.752Z" fill="#A7A7A7"/>
<path d="M593.749 251.491C589.021 249.425 591.001 247.614 585.315 246.613C579.628 245.612 574.985 246.613 573.452 245.591C571.961 244.547 564.592 241.97 565.571 245.591C566.572 249.233 573.217 250.234 574.943 251.256C576.668 252.3 572.472 254.643 575.645 256.432C578.84 258.221 581.098 261.607 585.272 260.564C589.468 259.499 590.959 261.863 594.366 262.374C597.838 262.864 601.288 261.863 599.861 260.265C598.371 258.753 597.412 256.645 597.646 254.856C597.902 253.045 598.413 253.578 593.749 251.491Z" fill="#A7A7A7"/>
<path d="M591.278 274.514C589.553 269.339 585.357 259.818 584.399 264.44C583.398 269.083 576.753 272.427 574.24 272.171C571.982 271.916 573.26 269.594 573.26 267.486C573.26 265.42 571.961 263.375 566.338 264.93C560.63 266.463 559.459 271.894 557.925 271.405C556.477 270.893 552.494 269.85 550.066 272.704C547.596 275.558 545.338 280.989 542.42 282.032C539.439 283.076 529.556 284.333 529.556 288.507C529.556 292.639 532.048 298.837 531.793 302.202C531.537 305.567 527.043 313.298 533.028 315.662C536.478 317.004 538.927 317.195 542.931 315.151C546.872 313.085 563.867 307.654 566.125 309.443C568.34 311.253 571.918 315.492 573.515 316.407C576.646 318.282 577.498 322.605 581.694 323.649C585.826 324.692 589.084 325.182 590.788 325.182C592.535 325.182 598.669 323.116 600.159 319.496C601.65 315.854 604.355 307.334 605.59 303.203C606.89 299.071 608.04 294.428 604.355 290.786C600.671 287.186 593.003 279.689 591.278 274.514Z" fill="#A7A7A7"/>
</svg>
